<svg xmlns="http://www.w3.org/2000/svg" width="137" height="104" viewBox="0 0 137 104" fill="none"><path d="M69.9504 34.5859C33.8508 -4.90178 13.7954 55.4145 13.4308 59.7538V63.2253C55.7293 138.729 103.498 91.4307 112.614 59.7538C119.906 34.4123 109.575 41.0948 103.498 47.6038C104.348 56.427 98.8301 66.176 69.9504 34.5859Z" fill="#FB8FC3"></path><path d="M75.0018 3.97559L32.6178 64.2243C54.3217 66.7991 98.5894 69.106 102.029 57.736C105.469 46.366 114.11 45.9952 118 47.2311L75.0018 3.97559Z" fill="#6D365D"></path><path d="M109.462 13.854C117.762 13.854 124.291 15.4033 129.05 18.502C133.808 21.6007 136.188 25.8613 136.188 31.284C136.188 35.4893 134.804 39.5287 132.038 43.402C129.271 47.2753 125.674 50.9827 121.248 54.524C116.932 57.9547 112.228 61.2193 107.138 64.318C102.158 67.4167 97.3436 70.3493 92.6956 73.116C88.1583 75.772 84.2849 78.262 81.0756 80.586C83.8423 80.586 86.8856 80.9733 90.2056 81.748C93.6363 82.5227 97.1776 83.2973 100.83 84.072C104.592 84.8467 108.189 85.234 111.62 85.234C115.825 85.234 119.2 84.57 121.746 83.242C124.402 81.914 125.73 79.922 125.73 77.266C125.73 73.946 123.738 71.2347 119.754 69.132L121.58 66.974C124.789 68.634 127.113 70.626 128.552 72.95C129.99 75.1633 130.71 77.8747 130.71 81.084C130.71 84.6253 129.824 88.1113 128.054 91.542C126.394 94.862 123.682 97.6287 119.92 99.842C116.157 101.945 111.177 102.996 104.98 102.996C101.438 102.996 97.9523 102.609 94.5216 101.834C91.0909 101.059 87.6049 100.285 84.0636 99.51C80.5223 98.6247 76.6489 98.1267 72.4436 98.016C68.2383 97.7947 64.6969 98.0713 61.8196 98.846C59.0529 99.51 55.9543 100.561 52.5236 102L53.3536 98.514C55.6776 96.6327 58.7209 94.364 62.4836 91.708C66.2463 88.9413 70.3409 85.8427 74.7676 82.412C79.3049 78.9813 83.7869 75.3293 88.2136 71.456C92.6403 67.472 96.7349 63.322 100.498 59.006C104.26 54.69 107.248 50.2633 109.462 45.726C111.675 41.1887 112.782 36.596 112.782 31.948C112.782 27.5213 111.675 24.2013 109.462 21.988C107.248 19.664 104.15 18.502 100.166 18.502C96.9563 18.502 93.6363 19.2213 90.2056 20.66C86.8856 22.0987 83.7869 24.0907 80.9096 26.636C78.1429 29.0707 75.8743 31.8373 74.1036 34.936C72.4436 37.924 71.6136 41.0227 71.6136 44.232C71.6136 46.888 72.3329 48.88 73.7716 50.208C75.3209 51.536 77.8109 52.2 81.2416 52.2C84.3403 52.2 86.9963 51.6467 89.2096 50.54C91.5336 49.3227 93.9683 47.6073 96.5136 45.394L98.5056 47.718C95.4069 50.5953 92.2529 52.6427 89.0436 53.86C85.8343 55.0773 82.8463 55.686 80.0796 55.686C78.3089 55.686 76.4276 55.4093 74.4356 54.856C72.5543 54.192 70.9496 53.0853 69.6216 51.536C68.2936 49.876 67.6296 47.4967 67.6296 44.398C67.6296 40.746 68.6809 37.1493 70.7836 33.608C72.8863 29.956 75.7636 26.636 79.4156 23.648C83.1783 20.66 87.6049 18.2807 92.6956 16.51C97.7863 14.7393 103.375 13.854 109.462 13.854Z" fill="#FEF2E2"></path><path d="M9.67082 49.6376C17.1654 52.9368 34.1679 55.1128 42.4301 37.5545C42.461 37.4876 42.4919 37.4213 42.5228 37.3558C42.4921 37.4223 42.4612 37.4886 42.4301 37.5545C38.9211 45.1695 36.2781 61.9539 53.2009 69.7874C46.2506 68.0567 30.3546 67.8534 22.373 80.8859C26.2654 74.2315 29.1742 58.6656 9.67082 49.6376Z" fill="#FEF2E2"></path></svg>