<svg xmlns="http://www.w3.org/2000/svg" width="118" height="110" viewBox="0 0 118 110" fill="none"><path d="M69.9504 40.5859C33.8507 1.09822 13.7954 61.4145 13.4308 65.7538V69.2253C55.7293 144.729 103.497 97.4307 112.614 65.7538C119.906 40.4123 109.575 47.0948 103.497 53.6038C104.348 62.427 98.8301 72.176 69.9504 40.5859Z" fill="#FB8FC3"></path><path d="M75.0018 9.97559L32.6178 70.2243C54.3217 72.7991 98.5894 75.106 102.029 63.736C105.469 52.366 114.11 51.9952 118 53.2311L75.0018 9.97559Z" fill="#6D365D"></path><path d="M88.68 17.904C95.08 17.904 100.157 19.056 103.912 21.36C107.667 23.664 109.544 26.7787 109.544 30.704C109.544 33.6907 108.605 36.464 106.728 39.024C104.936 41.4987 102.547 43.76 99.56 45.808C96.6587 47.7707 93.4587 49.4347 89.96 50.8C86.5467 52.1653 83.2187 53.232 79.976 54C84.584 54.0853 88.7227 54.6827 92.392 55.792C96.0613 56.816 98.9627 58.48 101.096 60.784C103.229 63.088 104.296 66.0747 104.296 69.744C104.296 74.096 102.845 78.1493 99.944 81.904C97.128 85.5733 93.3307 88.816 88.552 91.632C83.7733 94.5333 78.44 96.9653 72.552 98.928C66.7493 100.976 60.8187 102.512 54.76 103.536C48.7867 104.645 43.1547 105.243 37.864 105.328L38.504 103.024C43.5387 102.683 48.7867 101.701 54.248 100.08C59.7093 98.4587 64.8293 96.1547 69.608 93.168C74.3867 90.2667 78.2267 86.7253 81.128 82.544C84.0293 78.2773 85.48 73.328 85.48 67.696C85.48 64.2827 84.7973 61.552 83.432 59.504C82.152 57.3707 80.232 56.2187 77.672 56.048C76.3067 56.6453 74.984 57.1573 73.704 57.584C72.5093 58.0107 71.3573 58.224 70.248 58.224C69.5653 58.224 68.968 58.096 68.456 57.84C67.944 57.584 67.816 57.072 68.072 56.304C68.328 55.1093 69.2667 54.384 70.888 54.128C72.5093 53.872 74.4293 53.8293 76.648 54C79.6347 52.8053 82.28 51.2267 84.584 49.264C86.9733 47.216 88.8933 44.912 90.344 42.352C91.7947 39.7067 92.52 36.848 92.52 33.776C92.52 30.192 91.4533 27.376 89.32 25.328C87.272 23.28 84.3707 22.256 80.616 22.256C78.312 22.256 76.008 22.6827 73.704 23.536C71.4853 24.3893 69.4373 25.5413 67.56 26.992C65.768 28.4427 64.2747 30.1067 63.08 31.984C61.9707 33.776 61.416 35.6107 61.416 37.488C61.416 39.536 61.9707 41.072 63.08 42.096C64.2747 43.12 66.1947 43.632 68.84 43.632C71.7413 43.632 74.3867 42.992 76.776 41.712L78.184 43.632C76.392 44.5707 74.6 45.2533 72.808 45.68C71.1013 46.1067 69.48 46.32 67.944 46.32C66.5787 46.32 65.128 46.1067 63.592 45.68C62.1413 45.168 60.904 44.3147 59.88 43.12C58.856 41.84 58.344 40.0053 58.344 37.616C58.344 34.4587 59.6667 31.3867 62.312 28.4C65.0427 25.4133 68.712 22.9387 73.32 20.976C77.928 18.928 83.048 17.904 88.68 17.904Z" fill="#2172C8"></path><path d="M9.67079 55.6381C17.1653 58.9373 34.1678 61.1133 42.4301 43.555C42.4609 43.4881 42.4918 43.4218 42.5228 43.3563C42.492 43.4228 42.4611 43.4891 42.4301 43.555C38.921 51.17 36.278 67.9544 53.2009 75.7879C46.2506 74.0572 30.3546 73.8539 22.373 86.8864C26.2654 80.232 29.1742 64.6661 9.67079 55.6381Z" fill="#2172C8"></path></svg>