<svg xmlns="http://www.w3.org/2000/svg" width="116" height="114" viewBox="0 0 116 114" fill="none"><path d="M48.0499 43.6103C84.1495 4.12263 104.205 64.4389 104.569 68.7782V72.2497C62.2709 147.754 14.5027 100.455 5.38667 68.7782C-1.90619 43.4367 8.42535 50.1192 14.5027 56.6282C13.6519 65.4514 19.1702 75.2004 48.0499 43.6103Z" fill="#6D365D"></path><path d="M42.9982 13L85.3822 73.2487C63.6783 75.8235 19.4106 78.1304 15.9708 66.7604C12.5309 55.3904 3.89034 55.0196 1.52588e-05 56.2555L42.9982 13Z" fill="#FEF2E2"></path><path d="M78.8878 0.586433L79.6558 3.14644C75.0478 4.42644 70.4398 6.5171 65.8318 9.41843C61.2238 12.3198 56.8291 16.0318 52.6478 20.5544C48.5518 24.9918 44.8824 30.1118 41.6398 35.9144C38.3971 41.6318 35.8371 47.9891 33.9598 54.9864C32.0824 61.9838 31.1438 69.4078 31.1438 77.2584C31.1438 83.2318 31.6984 87.2424 32.8078 89.2904C34.0024 91.2531 35.6664 92.2344 37.7998 92.2344C40.6158 92.2344 43.2184 90.9544 45.6078 88.3944C48.0824 85.8344 50.1731 82.5918 51.8798 78.6664C53.5864 74.6558 54.9091 70.4744 55.8478 66.1224C56.7864 61.7704 57.2558 57.8024 57.2558 54.2184C57.2558 50.0371 56.6158 47.1358 55.3358 45.5144C54.1411 43.8078 52.6478 42.9544 50.8558 42.9544C48.8931 42.9544 46.8451 43.9358 44.7118 45.8984C42.6638 47.8611 40.8291 51.2744 39.2078 56.1384L37.1598 55.4984C38.4398 50.8051 40.1464 47.1358 42.2798 44.4904C44.4984 41.7598 46.9304 39.8398 49.5758 38.7304C52.3064 37.5358 55.1224 36.9384 58.0238 36.9384C63.2291 36.9384 67.5384 38.5598 70.9518 41.8024C74.4504 45.0451 76.1998 49.8664 76.1998 56.2664C76.1998 61.3011 75.0904 66.1224 72.8718 70.7304C70.7384 75.3384 67.7518 79.4771 63.9118 83.1464C60.0718 86.7304 55.6344 89.5891 50.5998 91.7224C45.6504 93.7704 40.3171 94.7944 34.5998 94.7944C27.5171 94.7944 22.0558 92.9171 18.2158 89.1624C14.4611 85.3224 12.5838 79.3491 12.5838 71.2424C12.5838 63.7331 14.0344 56.6504 16.9358 49.9944C19.9224 43.2531 23.8478 37.0664 28.7118 31.4344C33.5758 25.7171 38.9091 20.7251 44.7118 16.4584C50.5998 12.1918 56.4878 8.69311 62.3758 5.96244C68.3491 3.23177 73.8531 1.43977 78.8878 0.586433Z" fill="#FB8FC3"></path><path d="M63.0128 90.7727C70.9214 88.6495 85.5375 79.6947 80.9787 60.8327C80.9608 60.7612 80.9434 60.6903 80.9265 60.6198C80.9442 60.6909 80.9616 60.7619 80.9787 60.8327C83.0137 68.9666 91.4679 83.7053 109.566 79.2103C103.064 82.2151 90.5464 92.0144 92.4889 107.173C91.3543 99.5477 83.8707 85.5922 63.0128 90.7727Z" fill="#FB8FC3"></path></svg>