<svg xmlns="http://www.w3.org/2000/svg" width="145" height="153" viewBox="0 0 145 153" fill="none"><path d="M139.241 141.856H42.6185V85.0077C42.6187 50.9121 59.7064 29.42 93.1913 29.4199C133.524 29.4198 141 68.2916 141 85.0077L139.241 141.856Z" fill="#2172C8"></path><path d="M71.3597 141.992C58.1419 141.168 53.7188 123.536 53.1594 114.822C79.1819 41.5283 105.317 54.5766 122.088 79.669C127.701 88.0661 122.088 103.105 128.478 104.714C134.867 106.324 140.74 114.822 140.998 127.57C141.256 140.318 112.988 153.195 105.759 152.358C98.531 151.521 87.8819 143.022 71.3597 141.992Z" fill="#FEF2E2"></path><path d="M11.8065 101.637C20.9561 105.665 41.7133 108.322 51.8002 86.8859C51.8378 86.8042 51.8756 86.7233 51.9134 86.6434C51.8758 86.7246 51.838 86.8054 51.8002 86.8859C47.5162 96.1825 44.2895 116.674 64.9495 126.237C56.4644 124.124 37.058 123.876 27.3138 139.786C32.0657 131.662 35.6169 112.659 11.8065 101.637Z" fill="#FB8FC3"></path><path d="M144.26 14.72L103.44 152H66.78L99.28 42.28C94.7733 44.0133 89.8333 45.7467 84.46 47.48C79.26 49.2133 72.6733 51.12 64.7 53.2L65.48 47.74C78.1333 44.4467 88.9667 40.98 97.98 37.34C106.993 33.7 114.707 29.8867 121.12 25.9C127.707 21.9133 133.687 18.1867 139.06 14.72H144.26Z" fill="#FB8FC3"></path></svg>