<svg xmlns="http://www.w3.org/2000/svg" width="118" height="154" viewBox="0 0 118 154" fill="none"><path d="M113.241 120.856H16.6185V64.0077C16.6187 29.9121 33.7065 8.42001 67.1914 8.41992C107.524 8.41982 115 47.2916 115 64.0077L113.241 120.856Z" fill="#FEF2E2"></path><path d="M45.3597 120.992C32.1419 120.168 27.7188 102.536 27.1595 93.8224C53.182 20.5283 79.3166 33.5766 96.0881 58.669C101.701 67.0661 96.0881 82.1046 102.478 83.7142C108.867 85.3237 114.74 93.8224 114.998 106.57C115.257 119.318 86.988 132.195 79.7595 131.358C72.531 130.521 61.882 122.022 45.3597 120.992Z" fill="#2172C8"></path><path d="M11.8065 27.6373C20.9562 31.6651 41.7134 34.3217 51.8003 12.8859C51.8379 12.8042 51.8756 12.7233 51.9134 12.6434C51.8759 12.7246 51.8381 12.8054 51.8003 12.8859C47.5163 22.1825 44.2896 42.6735 64.9496 52.2369C56.4644 50.124 37.0581 49.8758 27.3138 65.7864C32.0658 57.6624 35.617 38.659 11.8065 27.6373Z" fill="#FB8FC3"></path><path d="M115.153 43.8414L117.073 44.9614C114.513 51.7881 111.207 57.2281 107.153 61.2814C103.207 65.3347 98.5667 67.3614 93.2334 67.3614C90.9934 67.3614 88.5934 66.828 86.0334 65.7614C83.4734 64.6947 80.9667 63.6814 78.5134 62.7214C76.1667 61.7614 73.9801 61.4414 71.9534 61.7614L57.0734 93.7614C60.4867 91.9481 64.2201 90.5614 68.2734 89.6014C72.3267 88.6414 76.8601 88.1614 81.8734 88.1614C91.3667 88.1614 98.3001 89.8681 102.673 93.2814C107.047 96.6947 109.233 101.335 109.233 107.201C109.233 113.175 107.527 118.561 104.113 123.361C100.7 128.161 96.1667 132.428 90.5134 136.161C84.9667 139.895 78.7801 142.988 71.9534 145.441C65.1267 148.001 58.2467 149.921 51.3134 151.201C44.3801 152.588 37.9267 153.388 31.9534 153.601L32.7534 150.721C38.4067 150.721 44.2734 149.761 50.3534 147.841C56.5401 145.921 62.2467 143.095 67.4734 139.361C72.8067 135.735 77.1267 131.255 80.4334 125.921C83.7401 120.481 85.3934 114.348 85.3934 107.521C85.3934 103.041 84.2201 99.5214 81.8734 96.9614C79.6334 94.2947 75.7934 92.9614 70.3534 92.9614C68.7534 92.9614 66.6734 93.2281 64.1134 93.7614C61.5534 94.1881 58.4067 95.3614 54.6734 97.2814L53.0734 96.4814L75.1534 47.0414C78.2467 46.828 81.0201 47.0947 83.4734 47.8414C85.9267 48.4814 88.4867 49.1747 91.1534 49.9214C93.8201 50.6681 96.9134 51.0414 100.433 51.0414C103.633 51.0414 106.46 50.5614 108.913 49.6014C111.367 48.5347 113.447 46.6147 115.153 43.8414Z" fill="#FB8FC3"></path></svg>