<svg xmlns="http://www.w3.org/2000/svg" width="119" height="154" viewBox="0 0 119 154" fill="none"><path d="M113.241 120.856H16.6184V64.0077C16.6186 29.9121 33.7064 8.42001 67.1913 8.41992C107.524 8.41982 115 47.2916 115 64.0077L113.241 120.856Z" fill="#2172C8"></path><path d="M61.675 120.655C51.7436 119.835 48.4203 102.303 48 93.6392C67.5523 20.7614 87.1888 33.7356 99.7903 58.6855C104.007 67.0349 99.7903 81.988 104.591 83.5884C109.392 85.1888 113.805 93.6392 113.999 106.315C114.193 118.99 92.9528 131.794 87.5216 130.962C82.0904 130.129 74.0891 121.679 61.675 120.655Z" fill="#6D365D"></path><path d="M42.8183 84.0246C25.1756 85.0378 24.1674 88.0771 18.1185 104.287C16.1022 114.823 40.2979 132.316 53.908 133.161C69.5345 136.369 83.9543 130.506 94.2343 131.641C108 133.161 104.427 117.202 113.5 114.5C113.836 109.266 114.901 98.2083 110.869 104.287C106.836 110.365 99.4431 112.223 96.2506 112.392C84.3208 102.598 56.9325 83.2142 42.8183 84.0246Z" fill="#FB8FC3"></path><path d="M11.8066 27.6373C20.9562 31.6651 41.7134 34.3217 51.8003 12.8859C51.8379 12.8042 51.8757 12.7233 51.9135 12.6434C51.8759 12.7246 51.8382 12.8054 51.8003 12.8859C47.5163 22.1825 44.2896 42.6735 64.9496 52.2369C56.4645 50.124 37.0581 49.8758 27.3139 65.7864C32.0658 57.6624 35.617 38.659 11.8066 27.6373Z" fill="#FEF2E2"></path><path d="M112.48 46.04L112.96 49.72L38.4 122.04L40.32 118.04H118.08L116.48 123.64H34.72L35.68 120.28L112.48 46.04ZM116.64 46.04L87.68 153.56H65.12L87.2 71.64L112.48 46.04H116.64Z" fill="#FEF2E2"></path></svg>